# xmcd CD database file
#
# Track frame offsets:
#	150
#	2873
#	5548
#	11045
#	12924
#	14388
#	16475
#	18034
#	19773
#	23118
#	25282
#	28879
#	30241
#	31504
#	33806
#	40931
#	44720
#	47000
#	49557
#	55503
#	59145
#	60377
#	64778
#	69372
#	70675
#	74924
#	78192
#	82215
#	84449
#	86424
#	89421
#	91758
#	96740
#	100005
#	102470
#	106078
#	109739
#	111885
#	114488
#	118526
#	121763
#	125246
#
# Disc length: 1693 seconds
#
# Revision: 0
# Processed by: cddbd v1.5.2PL0 Copyright (c) Steve Scherf et al.
# Submitted via: CDex 1.51
#
DISCID=1a069b2a
DTITLE=Didier Jeunesse - Les Jeux Chantés
DYEAR=2007
DGENRE=Lullubies
TTITLE0=Pouce qui pousse
TTITLE1=Petit pouce dort bien au chaud
TTITLE2=Le pouce part en voyage
TTITLE3=Le pouçot, le lichepot...
TTITLE4=P'tit mégot
TTITLE5=Ainsi font font font
TTITLE6=La belle menette
TTITLE7=Dansons les belles mains
TTITLE8=Voici ma main, elle a cinq doigts
TTITLE9=En grimpant au plus haut
TTITLE10=L'araignée Gypsie
TTITLE11=P'tit chat minou
TTITLE12=Une bonne vache
TTITLE13=Le boeuf, la vache
TTITLE14=Petit oiseau d'or et d'argent
TTITLE15=Deux gros oiseaux sur un poteau
TTITLE16=La petite alouette est passée par là
TTITLE17=Une p'tite souris passait par là
TTITLE18=Allons dans nos lits
TTITLE19=Le jardin, le trottoir
TTITLE20=Nez cancan
TTITLE21=Pomme de reinette
TTITLE22=Le mur se bâtit
TTITLE23=Dans mon jardin, il y a un bassin
TTITLE24=Je fais le tour de mon jardin
TTITLE25=Je secoue ma p'tite paillasse
TTITLE26=Un gros chat gris dormait
TTITLE27=Au cluguet, tiroluret
TTITLE28=Bats la pâte
TTITLE29=Un petit poisson est passé par ici
TTITLE30=Monsieur poisson se promène
TTITLE31=Vole vole vole papillon
TTITLE32=Papillon, vole vole
TTITLE33=Un crabe, méfie toi
TTITLE34=Guéri, guéra
TTITLE35=Toc, toc, toc Tortue
TTITLE36=Petit escargot porte sur son dos
TTITLE37=Pouces cachés
TTITLE38=Petits pouces ont peur du loup
TTITLE39=Marie et Pierrot
TTITLE40=Le monde qui bouge
TTITLE41=Bonjour petit pigeon blanc
EXTD=YEAR: 2007
EXTT0=
EXTT1=
EXTT2=
EXTT3=
EXTT4=
EXTT5=
EXTT6=
EXTT7=
EXTT8=
EXTT9=
EXTT10=
EXTT11=
EXTT12=
EXTT13=
EXTT14=
EXTT15=
EXTT16=
EXTT17=
EXTT18=
EXTT19=
EXTT20=
EXTT21=
EXTT22=
EXTT23=
EXTT24=
EXTT25=
EXTT26=
EXTT27=
EXTT28=
EXTT29=
EXTT30=
EXTT31=
EXTT32=
EXTT33=
EXTT34=
EXTT35=
EXTT36=
EXTT37=
EXTT38=
EXTT39=
EXTT40=
EXTT41=
PLAYORDER=
